<?xml version="1.0" standalone="no"?>
<!DOCTYPE svg PUBLIC "-//W3C//DTD SVG 20010904//EN"
 "http://www.w3.org/TR/2001/REC-SVG-20010904/DTD/svg10.dtd">
<svg version="1.0" xmlns="http://www.w3.org/2000/svg"
 width="912.000000pt" height="912.000000pt" viewBox="0 0 912.000000 912.000000"
 preserveAspectRatio="xMidYMid meet">
<g transform="translate(0.000000,912.000000) scale(0.100000,-0.100000)"
fill="#000000" stroke="none">
<path d="M4449 9099 c-99 -35 -157 -104 -224 -266 -14 -35 -37 -89 -51 -120
-14 -32 -30 -69 -36 -83 -18 -45 -35 -85 -46 -110 -5 -14 -22 -51 -36 -83 -14
-31 -37 -85 -51 -120 -14 -34 -32 -75 -40 -92 -7 -16 -41 -95 -75 -175 -34
-80 -70 -163 -81 -186 -10 -23 -19 -44 -19 -47 0 -6 -28 -71 -60 -142 -5 -11
-39 -90 -76 -175 -36 -85 -72 -168 -79 -185 -8 -16 -32 -75 -56 -130 -23 -55
-50 -118 -60 -140 -10 -22 -30 -69 -45 -105 -15 -36 -34 -81 -42 -100 -9 -19
-16 -37 -17 -40 0 -3 -11 -27 -24 -55 -12 -27 -24 -56 -25 -63 -1 -7 -8 -18
-14 -24 -7 -7 -12 -17 -12 -22 0 -9 -121 -297 -180 -431 -10 -22 -29 -66 -43
-97 -14 -31 -23 -59 -19 -62 3 -3 0 -6 -6 -6 -7 0 -12 -8 -12 -18 0 -10 -4
-22 -8 -28 -5 -5 -16 -28 -25 -51 -9 -23 -25 -61 -36 -85 -37 -82 -126 -293
-126 -300 0 -4 -6 -13 -12 -19 -7 -7 -13 -19 -13 -26 0 -7 -12 -39 -27 -70
-14 -32 -30 -67 -34 -78 -4 -11 -19 -45 -32 -75 -13 -30 -66 -153 -117 -272
-60 -142 -96 -215 -104 -211 -45 28 -102 69 -104 75 -2 4 -7 8 -12 8 -11 0
-404 262 -408 272 -2 4 -8 8 -14 8 -6 0 -31 15 -57 33 -77 54 -113 68 -196 73
-125 9 -248 -64 -305 -181 l-25 -50 -2 -900 c-1 -495 2 -920 7 -945 4 -25 11
-63 14 -85 6 -42 35 -149 56 -200 6 -16 11 -31 11 -33 -4 -13 118 -230 146
-260 7 -7 13 -16 13 -20 1 -16 133 -157 205 -218 50 -43 209 -154 220 -154 2
0 36 -15 77 -34 40 -19 98 -42 128 -51 100 -30 95 -26 109 -106 16 -93 61
-279 72 -300 4 -9 10 -27 13 -40 11 -63 167 -408 188 -417 5 -2 8 -8 8 -13 0
-14 113 -180 178 -264 112 -142 330 -345 477 -445 28 -19 52 -37 53 -42 2 -4
8 -8 13 -8 5 0 26 -11 47 -23 31 -20 96 -56 189 -106 35 -18 210 -90 233 -96
8 -2 35 -11 59 -19 24 -9 53 -18 65 -21 12 -2 48 -12 81 -20 88 -23 76 -21
205 -40 71 -11 124 -16 209 -20 51 -2 95 -6 98 -9 2 -2 18 0 34 4 17 5 31 5
35 -1 3 -5 10 -7 15 -4 5 3 48 8 96 11 49 3 99 7 113 9 14 3 48 8 75 11 28 3
77 13 110 20 33 8 69 17 80 19 216 39 555 197 790 369 209 152 408 362 550
581 53 81 135 222 135 232 0 3 11 28 25 55 26 52 110 277 119 319 3 13 10 42
16 64 19 71 21 82 35 168 3 17 8 46 11 62 3 17 8 33 12 36 4 4 44 19 90 34
246 80 487 253 622 445 14 19 28 37 31 40 9 8 75 122 102 175 25 51 89 225 83
225 -2 0 2 21 10 47 8 26 18 70 22 98 12 86 9 1859 -4 1886 -6 13 -18 37 -25
53 -22 46 -90 109 -144 135 -66 31 -171 36 -241 11 -27 -9 -197 -117 -379
-238 -372 -249 -332 -235 -374 -125 -11 28 -29 71 -40 95 -57 128 -71 162 -71
174 0 8 -4 14 -10 14 -5 0 -10 6 -10 13 0 6 -24 68 -54 137 -30 69 -85 195
-121 280 -36 85 -70 164 -75 175 -28 60 -302 702 -305 715 -2 8 -17 43 -34 78
-17 34 -31 65 -31 67 0 5 -220 520 -261 612 -11 23 -19 44 -19 46 0 3 -12 31
-27 63 -15 33 -28 61 -28 64 0 3 -28 68 -61 145 -34 77 -92 212 -129 300 -37
88 -78 183 -90 211 -13 28 -42 95 -65 150 -23 54 -48 113 -55 129 -72 163
-157 364 -160 379 -2 10 -8 23 -13 30 -5 6 -24 47 -42 91 -49 116 -75 153
-147 203 -72 51 -192 64 -284 31z m146 -1194 c13 -27 103 -237 200 -465 98
-228 185 -431 193 -450 9 -19 16 -37 17 -40 0 -3 11 -27 23 -54 12 -27 22 -50
22 -52 0 -2 11 -27 24 -56 13 -29 70 -161 126 -293 56 -132 110 -258 120 -280
10 -22 44 -101 75 -175 32 -74 64 -151 73 -170 9 -19 16 -37 17 -40 0 -3 11
-27 23 -54 12 -27 22 -55 22 -62 0 -8 5 -14 10 -14 6 0 10 -6 10 -12 0 -7 43
-112 96 -233 52 -121 96 -224 98 -230 5 -18 45 -109 60 -137 19 -35 11 -40
-33 -22 -20 9 -43 17 -51 19 -8 2 -46 13 -85 26 -38 13 -72 24 -75 24 -3 1
-17 5 -31 9 -14 4 -32 9 -40 10 -8 2 -21 6 -29 9 -14 5 -89 24 -135 33 -11 2
-31 7 -45 10 -14 2 -36 7 -50 9 -14 2 -36 7 -50 10 -14 4 -38 8 -55 10 -16 1
-30 4 -30 4 0 1 -18 4 -40 7 -22 2 -58 6 -80 9 -104 13 -192 18 -332 19 -87 1
-149 5 -145 10 3 5 0 6 -6 2 -7 -4 -56 -9 -109 -12 -54 -2 -120 -6 -148 -9
-27 -3 -66 -8 -85 -9 -55 -6 -122 -15 -155 -22 -16 -4 -41 -8 -55 -9 -43 -5
-262 -55 -335 -76 -74 -23 -258 -83 -288 -94 -17 -7 1 44 63 180 10 22 32 74
49 115 18 41 38 89 46 105 16 35 14 31 135 315 50 118 97 229 105 245 36 79
118 271 119 280 1 6 11 30 23 55 12 25 35 79 53 120 17 41 35 84 40 95 27 60
53 122 95 220 25 61 52 124 60 140 7 17 32 75 55 130 23 55 51 118 60 140 10
22 64 148 121 280 56 132 112 263 125 292 13 28 24 54 24 57 0 3 16 40 36 83
22 47 38 72 42 63 3 -8 15 -37 27 -65z m86 -3270 c182 -8 223 -12 389 -42 304
-53 690 -193 920 -332 19 -11 42 -24 50 -28 20 -9 162 -104 230 -153 30 -22
71 -47 90 -56 52 -23 161 -27 218 -8 44 15 183 100 190 117 2 4 8 7 13 7 10 0
103 62 107 73 2 4 8 7 12 7 9 0 170 106 197 130 16 14 22 1 21 -47 0 -23 3
-46 6 -51 3 -6 2 -13 -3 -17 -6 -3 -7 -15 -2 -28 4 -12 4 -35 1 -52 -3 -16 -3
-40 1 -52 5 -12 4 -25 -1 -28 -5 -3 -6 -16 -1 -28 4 -12 5 -35 1 -52 -3 -16
-3 -42 1 -57 5 -17 4 -28 -2 -28 -6 0 -8 -4 -5 -8 5 -9 7 -67 5 -148 -1 -29 1
-56 5 -62 3 -6 2 -13 -3 -17 -6 -3 -7 -16 -3 -28 4 -12 6 -38 5 -57 -6 -73 -5
-139 2 -149 3 -6 3 -11 -2 -11 -4 0 -7 -35 -7 -77 2 -98 -25 -205 -74 -296
-40 -75 -151 -197 -213 -234 l-37 -21 -23 50 c-31 67 -82 119 -149 153 -47 24
-67 29 -140 29 -74 1 -92 -3 -137 -26 -58 -31 -123 -86 -123 -105 0 -7 -4 -13
-9 -13 -17 0 -45 -97 -48 -165 -2 -54 -3 -234 -1 -320 1 -28 -13 -203 -17
-225 -3 -14 -8 -45 -11 -70 -6 -46 -50 -199 -79 -280 -53 -146 -156 -319 -280
-470 -47 -57 -176 -177 -245 -229 -41 -31 -76 -59 -78 -63 -2 -5 -8 -8 -13 -8
-5 0 -32 -15 -61 -34 -134 -85 -333 -161 -514 -196 -85 -17 -279 -33 -359 -31
-27 0 -135 11 -175 16 -115 16 -345 82 -377 107 -7 6 -13 7 -13 3 0 -16 -313
163 -340 194 -3 4 -23 19 -45 36 -117 86 -309 313 -383 450 -15 28 -30 51 -34
53 -5 2 -8 12 -8 23 0 10 -4 19 -10 19 -5 0 -10 6 -10 13 0 7 -8 31 -19 53
-65 137 -117 355 -126 529 -4 71 -4 114 -5 330 -1 124 -1 127 -14 185 -19 77
-91 161 -176 202 -67 32 -196 31 -264 -2 -62 -30 -129 -98 -153 -156 -10 -24
-24 -44 -32 -44 -48 0 -195 155 -248 261 -49 97 -64 155 -69 258 -2 41 -5 80
-8 87 -3 8 -1 16 5 19 5 4 7 11 3 16 -5 9 -6 34 -3 156 1 28 -2 56 -6 62 -3 6
-1 11 5 11 6 0 8 5 5 10 -7 11 -8 79 -2 135 1 17 -1 42 -5 57 -3 15 -2 30 3
34 5 3 7 10 3 15 -5 9 -6 34 -3 156 1 28 -2 56 -6 62 -3 6 -1 11 5 11 6 0 8 5
5 10 -4 6 -6 34 -6 63 1 29 1 67 1 85 -1 39 12 40 56 7 18 -14 37 -25 42 -25
6 0 12 -3 14 -8 5 -12 380 -257 417 -272 33 -13 157 -19 196 -9 23 7 76 30 90
42 6 4 28 21 50 38 45 35 168 117 204 136 70 38 107 59 111 63 11 12 188 94
289 134 157 64 382 133 491 152 14 3 32 7 40 9 8 3 37 7 64 10 28 4 53 8 56
10 3 2 33 6 65 10 33 4 71 8 85 10 14 3 79 7 145 10 66 3 121 8 124 10 2 3 7
2 11 0 5 -3 64 -7 131 -10z"/>
<path d="M3814 4301 c-129 -51 -205 -153 -209 -283 -4 -107 29 -189 103 -255
30 -27 675 -357 762 -390 67 -26 248 7 295 53 8 8 17 14 20 13 10 -2 299 143
306 153 3 6 8 8 10 6 2 -1 66 28 143 66 161 80 224 135 252 220 21 62 26 152
11 203 -23 79 -91 163 -156 193 -14 7 -37 18 -50 24 -13 6 -60 11 -105 10 -71
0 -90 -4 -156 -36 -41 -19 -79 -35 -84 -36 -5 0 -12 -4 -15 -9 -3 -4 -90 -50
-193 -101 l-187 -93 -276 136 -275 137 -78 3 c-53 1 -90 -3 -118 -14z"/>
<path d="M3791 3332 c-66 -32 -129 -92 -160 -156 -27 -56 -36 -163 -18 -224
23 -77 91 -162 153 -191 13 -6 36 -17 51 -23 45 -22 180 -15 237 12 62 30 126
93 156 155 35 73 35 199 0 269 -58 116 -155 177 -285 181 -68 2 -88 -1 -134
-23z"/>
<path d="M5114 3350 c-5 -4 -25 -13 -45 -19 -48 -15 -130 -96 -159 -157 -18
-38 -24 -66 -24 -124 0 -93 5 -116 39 -171 36 -57 81 -98 141 -129 68 -34 196
-35 268 0 62 30 126 93 156 155 34 71 34 198 0 269 -55 114 -155 177 -286 181
-45 2 -86 -1 -90 -5z"/>
<path d="M4438 2715 c-3 -3 -28 -8 -93 -19 -11 -2 -32 -9 -47 -15 -16 -6 -28
-9 -28 -6 0 6 -64 -21 -145 -61 -124 -61 -247 -165 -330 -278 -25 -34 -49 -66
-54 -72 -15 -18 -81 -163 -81 -177 0 -7 -4 -17 -9 -22 -33 -36 -60 -317 -38
-392 36 -122 142 -213 268 -229 71 -9 76 -8 134 11 62 21 99 46 147 99 48 53
65 102 82 238 7 54 29 121 48 144 37 46 93 94 136 115 56 27 190 33 238 10 16
-7 40 -19 53 -25 39 -17 104 -87 128 -136 12 -25 24 -66 27 -92 3 -27 9 -69
12 -95 12 -94 66 -175 153 -228 41 -25 60 -32 121 -40 14 -2 27 -4 30 -5 3 -2
10 -1 15 0 6 1 24 4 40 6 76 9 127 36 187 98 66 68 87 136 83 266 -6 233 -114
474 -284 634 -24 22 -54 51 -67 64 -13 12 -25 22 -28 22 -2 0 -27 16 -56 35
-74 50 -162 90 -265 120 -76 23 -112 28 -232 30 -78 1 -144 1 -145 0z"/>
</g>
</svg>
