<svg width="40" height="57" viewBox="0 0 40 57" fill="none" xmlns="http://www.w3.org/2000/svg">
<path d="M16.0003 40.0006C17.1049 40.0006 18.0003 39.1051 18.0003 38.0005C18.0003 36.8959 17.1049 36.0005 16.0003 36.0005C14.8957 36.0005 14.0002 36.8959 14.0002 38.0005C14.0002 39.1051 14.8957 40.0006 16.0003 40.0006Z" fill="black"/>
<path d="M24.0005 40.0006C25.1051 40.0006 26.0006 39.1051 26.0006 38.0005C26.0006 36.8959 25.1051 36.0005 24.0005 36.0005C22.8959 36.0005 22.0005 36.8959 22.0005 38.0005C22.0005 39.1051 22.8959 40.0006 24.0005 40.0006Z" fill="black"/>
<path d="M20.0003 40.0015C16.6923 40.0015 14.0002 42.6928 14.0002 46.0016C14.0002 47.1062 14.8956 48.0016 16.0003 48.0016C17.105 48.0016 18.0003 47.1062 18.0003 46.0016C18.0003 44.8989 18.8977 44.0015 20.0003 44.0015C21.103 44.0015 22.0004 44.8989 22.0004 46.0016C22.0004 47.1062 22.8957 48.0016 24.0004 48.0016C25.1051 48.0016 26.0004 47.1062 26.0004 46.0016C26.0004 42.6928 23.3084 40.0015 20.0003 40.0015Z" fill="black"/>
<path d="M15.1065 33.79L19.1065 35.7894C19.3879 35.93 19.6945 36 20.0006 36C20.3066 36 20.6132 35.93 20.8946 35.7894L24.8946 33.79C25.8827 33.296 26.2833 32.0946 25.7893 31.1073C25.2953 30.1199 24.0946 29.7193 23.1059 30.2119L20.0006 31.7646L16.8945 30.2119C15.9058 29.7193 14.7051 30.1186 14.2111 31.1073C13.7178 32.0946 14.1185 33.2953 15.1065 33.79Z" fill="black"/>
<path d="M38.944 24.2364C38.2933 23.8891 37.504 23.9264 36.8906 24.3357L32.8912 27.0018L21.8384 1.21202C21.523 0.476674 20.8003 0 20.0003 0C19.2003 0 18.477 0.476674 18.1623 1.21202L7.10879 27.0024L3.10938 24.3364C2.49604 23.9271 1.70603 23.8891 1.05602 24.2371C0.406007 24.5851 0 25.2631 0 26.0004V36.0006C0 39.7613 2.60871 42.9247 6.11144 43.7761C6.98612 50.6608 12.8809 56.0023 19.9997 56.0023C23.7397 56.0023 27.2558 54.5456 29.8998 51.9015C32.1212 49.6802 33.5039 46.8434 33.8892 43.7761C37.392 42.9247 40 39.762 40 36.0013V26.0004C40 25.2631 39.594 24.5851 38.944 24.2364ZM20.0003 7.07745L27.8765 25.4551C25.7618 24.6517 23.1017 24.0004 20.0003 24.0004C16.8989 24.0004 14.2382 24.6517 12.1242 25.4558L20.0003 7.07745ZM35.9999 36.0006C35.9999 37.5066 35.1626 38.82 33.9306 39.502C33.7079 38.64 32.9319 38.0006 32.0005 38.0006C30.8958 38.0006 30.0005 38.896 30.0005 40.0007V42.0014C30.0005 47.5155 25.5144 52.0022 19.9997 52.0022C17.329 52.0022 14.8176 50.9615 12.9289 49.0728C11.0402 47.1835 10.0002 44.6727 10.0002 42.0007C10.0002 41.9987 9.9995 41.996 9.9995 41.994L10.0002 40.0013C10.0002 38.8966 9.10548 38.0013 8.0008 38.0006C8.0008 38.0006 8.0008 38.0006 8.00013 38.0006C7.06878 38.0006 6.29277 38.6406 6.0701 39.502C4.83741 38.82 4.00007 37.5066 4.00007 36.0006V29.7372L6.89078 31.6645C7.38546 31.9939 8.00013 32.0859 8.57014 31.9179C8.78815 31.8525 8.98415 31.7425 9.16482 31.6125C9.20882 31.5872 9.25349 31.5605 9.29549 31.5245C9.33682 31.4892 13.5536 28.0005 20.0003 28.0005C26.4471 28.0005 30.6625 31.4892 30.6978 31.5185C30.7092 31.5285 30.7205 31.5305 30.7318 31.5385C30.9358 31.7065 31.1699 31.8399 31.4292 31.9172C31.9992 32.0865 32.6145 31.9939 33.1086 31.6639L35.9993 29.7365V36.0006H35.9999Z" fill="black"/>
</svg>
